<svg xmlns="http://www.w3.org/2000/svg" viewBox="0 0 361.9 94">
<style type="text/css">.st0{fill:#20014b;}</style>
<path class="st0" d="M99.3,74.9h65.4c1.7,0.1,3.1,1.5,3,3.3c0,1.7-1.3,3.1-3,3.1H99.3V74.9z"/>
<path class="st0" d="M233.8,74.9c1.8,0.1,3.2,1.5,3.3,3.3c-0.1,1.7-1.5,3.1-3.3,3.1H205v-6.4L233.8,74.9z"/>
<path class="st0" d="M279.9,74.9h78c1.7,0.1,3.1,1.5,3,3.3c0,1.7-1.3,3.1-3,3.1c0,0,0,0,0,0h-78V74.9z"/>
<path class="st0" d="M105.7,87.6h59.2c1.7,0.1,3,1.5,3,3.3c0,1.7-1.3,3.1-3,3.1h-59.2V87.6z"/>
<path class="st0" d="M233.8,87.6c1.8,0.1,3.2,1.5,3.3,3.3c-0.1,1.7-1.5,3.1-3.3,3.1H205v-6.4H233.8z"/>
<path class="st0" d="M286.2,87.6h71.8c1.7,0.1,3,1.5,3,3.3c0,1.7-1.3,3.1-3,3.1h-71.8V87.6z"/>
<path class="st0" d="M164.6,0c1.7,0,3,1.4,3,3.1c0,1.7-1.3,3.1-3,3.3H92.9V0H164.6z"/>
<path class="st0" d="M258.1,0c1.7,0,3,1.4,3,3.1c0,1.7-1.3,3.1-3,3.3H180V0H258.1z"/>
<path class="st0" d="M302.4,0c1.7,0,3.1,1.4,3.1,3.1c0,0,0,0,0,0c0,1.7-1.4,3.2-3.1,3.3h-28.9V0H302.4z"/>
<path class="st0" d="M358.8,0c1.7,0,3.1,1.4,3.1,3.1c0,0,0,0,0,0c0,1.7-1.4,3.2-3.1,3.3h-29V0H358.8z"/>
<path class="st0" d="M164.6,12.8c1.7,0,3,1.4,3,3.1c0,1.7-1.3,3.2-3,3.3H92.9v-6.4H164.6z"/>
<path class="st0" d="M258.1,12.8c1.7,0,3,1.4,3,3.1c0,1.7-1.3,3.2-3,3.3H180v-6.4H258.1z"/>
<path class="st0" d="M302.4,12.8c1.7,0,3.1,1.4,3.1,3.1v0c0,1.7-1.4,3.2-3.1,3.3h-28.9v-6.4H302.4z"/>
<path class="st0" d="M358.8,12.8c1.7,0,3.1,1.4,3.1,3.1c0,1.7-1.4,3.2-3.1,3.3h-29v-6.4H358.8z"/>
<path class="st0" d="M121.7,25c1.8,0.1,3.2,1.5,3.3,3.3c-0.1,1.7-1.5,3.1-3.3,3.1H92.9V25H121.7z"/>
<path class="st0" d="M121.5,62.7c1.8,0.1,3.2,1.5,3.3,3.3c-0.1,1.7-1.5,3.1-3.3,3.1H92.9v-6.4H121.5z"/>
<path class="st0" d="M233.8,25c1.8,0.1,3.2,1.5,3.3,3.3c-0.1,1.7-1.5,3.1-3.3,3.1H205V25H233.8z"/>
<path class="st0" d="M302.3,25c1.8,0.1,3.2,1.5,3.3,3.3c-0.1,1.7-1.5,3.1-3.3,3.1h-28.8V25H302.3z"/>
<path class="st0" d="M358.6,25c1.8,0.1,3.2,1.5,3.3,3.3c-0.1,1.7-1.5,3.1-3.3,3.1h-28.8V25H358.6z"/>
<path class="st0" d="M152.1,37.7c1.7,0,3,1.4,3,3.1c0.1,1.7-1.3,3.2-3,3.3H92.9v-6.4H152.1z"/>
<path class="st0" d="M233.8,37.7c1.8,0.1,3.2,1.5,3.3,3.3c-0.1,1.7-1.5,3.1-3.3,3.1H205v-6.4H233.8z"/>
<path class="st0" d="M302.4,37.7c1.7,0,3.1,1.4,3.1,3.1c0,0,0,0,0,0c0,1.7-1.4,3.2-3.1,3.3h-28.9v-6.4H302.4z"/>
<path class="st0" d="M358.8,37.7c1.7,0,3.1,1.4,3.1,3.1c0,1.7-1.4,3.2-3.1,3.3h-29v-6.4H358.8z"/>
<path class="st0" d="M71.2,81.2H5.8v-6.4h65.3c1.8,0.1,3.1,1.5,3.2,3.3C74.3,79.9,72.9,81.3,71.2,81.2"/>
<path class="st0" d="M64.8,94h-59v-6.4h59.1c1.7,0.1,3,1.5,3,3.3C67.9,92.6,66.6,94,64.8,94"/>
<path class="st0" d="M71.4,0c1.7,0,3,1.4,3,3.1c0,1.7-1.3,3.1-3,3.3H12.2V0H71.4z"/>
<path class="st0" d="M71.2,12.8c1.7,0,3,1.4,3,3.1c0,1.7-1.3,3.2-3,3.3H5.8v-6.4H71.2z"/>
<path class="st0" d="M28.5,25c1.8,0.1,3.2,1.5,3.3,3.3c-0.1,1.7-1.5,3.1-3.3,3.1H0V25H28.5z"/>
<path class="st0" d="M78.2,62.7c1.8,0.1,3.2,1.5,3.3,3.3c-0.1,1.7-1.5,3.1-3.3,3.1H49.4v-6.4H78.2z"/>
<path class="st0" d="M64.9,37.7c1.7,0,3,1.4,3,3.1c0,1.7-1.3,3.2-3,3.3H5.8v-6.4H64.9z"/>
<path class="st0" d="M71.7,56.3H12.2v-6.4h59.2c1.7,0.1,3,1.6,3,3.3c0,1.7-1.3,3.1-3,3.1"/>
<path class="st0" d="M151.9,56.3h-59v-6.4h59.2c1.7,0.1,3.1,1.5,3,3.3c0,1.7-1.3,3.1-3,3.1"/>
<path class="st0" d="M233.8,49.9c1.8,0.1,3.2,1.5,3.3,3.3c-0.1,1.7-1.5,3.1-3.3,3.1H205v-6.4H233.8z"/>
<path class="st0" d="M302.2,56.3h-28.7v-6.4h28.9c1.7,0.1,3.1,1.5,3.1,3.3c0,1.7-1.4,3.1-3.1,3.1l0,0"/>
<path class="st0" d="M359,56.3h-29.2v-6.4h29c1.7,0.1,3.1,1.5,3.1,3.3c0,1.7-1.4,3.1-3.1,3.1"/>
<path class="st0" d="M233.8,62.7c1.8,0.1,3.2,1.5,3.3,3.3c-0.1,1.7-1.5,3.1-3.3,3.1H205v-6.4H233.8z"/>
<path class="st0" d="M302.3,62.7c1.8,0.1,3.2,1.5,3.3,3.3c-0.1,1.7-1.5,3.1-3.3,3.1h-28.8v-6.4H302.3z"/>
<path class="st0" d="M358.6,62.7c1.8,0.1,3.2,1.5,3.3,3.3c-0.1,1.7-1.5,3.1-3.3,3.1h-28.8v-6.4H358.6z"/>
</svg>
